<?xml version="1.0"?>
<svg xmlns="http://www.w3.org/2000/svg" height="512px" viewBox="0 -29 512.00024 512" width="512px" class=""><g><path d="m237.632812 4.394531c-2.789062-2.789062-6.5625-4.394531-10.609374-4.394531h-212.019532c-8.285156 0-15.003906 6.714844-15.003906 15v423c0 8.285156 6.71875 15 15.003906 15h301.03125c8.265625 0 14.976563-6.6875 15-14.953125 0-.121094 1-332.929687 1-333.046875 0-3.964844-1.539062-7.570312-4.050781-10.253906-.257813-.273438-90.085937-90.089844-90.351563-90.351563zm4.394532 46.820313 38.789062 38.785156h-38.789062zm59.050781 371.785156h-271.074219v-393h182.019532v75c0 8.285156 6.714843 15 15 15h74.964843zm0 0" data-original="#000000" class="active-path" data-old_color="#ffffff" fill="#ffffff"/><path d="m61.007812 197c0 8.285156 6.714844 15 15 15h181.019532c8.285156 0 15.003906-6.714844 15.003906-15s-6.71875-15-15.003906-15h-181.019532c-8.285156 0-15 6.714844-15 15zm0 0" data-original="#000000" class="active-path" data-old_color="#ffffff" fill="#ffffff"/><path d="m257.027344 242h-181.019532c-8.285156 0-15 6.714844-15 15s6.714844 15 15 15h181.019532c8.285156 0 15.003906-6.714844 15.003906-15s-6.71875-15-15.003906-15zm0 0" data-original="#000000" class="active-path" data-old_color="#ffffff" fill="#ffffff"/><path d="m257.027344 302h-181.019532c-8.285156 0-15 6.714844-15 15s6.714844 15 15 15h181.019532c8.285156 0 15.003906-6.714844 15.003906-15s-6.71875-15-15.003906-15zm0 0" data-original="#000000" class="active-path" data-old_color="#ffffff" fill="#ffffff"/><path d="m257.027344 362h-181.019532c-8.285156 0-15 6.714844-15 15s6.714844 15 15 15h181.019532c8.285156 0 15.003906-6.714844 15.003906-15s-6.71875-15-15.003906-15zm0 0" data-original="#000000" class="active-path" data-old_color="#ffffff" fill="#ffffff"/><path d="m436.980469 1c-41.359375 0-75.007813 33.644531-75.007813 75v272c0 6.261719-2.609375.628906 62.527344 98.320312 5.917969 8.878907 19.019531 8.914063 24.964844 0 64.914062-97.363281 62.523437-91.996093 62.523437-98.320312v-272c0-41.355469-33.648437-75-75.007812-75zm45.003906 332h-30v-212h30zm-90.007813 0v-212h30.003907v212zm45.003907-302c24.816406 0 45.003906 20.1875 45.003906 45v15h-90.007813v-15c0-24.8125 20.1875-45 45.003907-45zm0 379.957031-31.976563-47.957031h63.953125zm0 0" data-original="#000000" class="active-path" data-old_color="#ffffff" fill="#ffffff"/></g> </svg>
