<?xml version="1.0"?>
<svg xmlns="http://www.w3.org/2000/svg" id="icons" enable-background="new 0 0 64 64" height="512px" viewBox="0 0 64 64" width="512px" class=""><g><path d="m61 3.998h-58c-1.654 0-3 1.346-3 3v52.004c0 .553.447 1 1 1h62c.553 0 1-.447 1-1v-52.004c0-1.654-1.346-3-3-3zm-31.995 41.005c-.547.006-.984.448-.984.998 0 .546.442.985.985.996h-27.006v-1.994zm-5.999-16.275 4.786 6.785-5.304 7.49h-9.553zm17.006-7.013 15.072 21.288h-30.145zm-10.977 23.288h2.969c-.547.006-.984.448-.984.998 0 .546.442.985.985.996h-2.96c.542-.011.98-.45.98-.996 0-.55-.443-.992-.99-.998zm2.999 0h2.973c-.547.006-.984.448-.984.998 0 .546.442.985.985.996h-2.964c.542-.011.98-.45.98-.996 0-.55-.443-.992-.99-.998zm3.003 0h26.963v1.994h-26.953c.542-.011.98-.45.98-.996 0-.55-.443-.992-.99-.998zm22.498-2-16.696-23.581c-.151-.214-.374-.344-.611-.395-.005-.001-.009-.004-.014-.005-.067-.014-.135-.005-.203-.005-.067 0-.134-.008-.2.004-.006.001-.011.005-.017.006-.236.051-.458.181-.609.394l-10.167 14.36-5.188-7.354c-.144-.203-.352-.325-.574-.381-.018-.005-.034-.017-.053-.021-.064-.013-.131-.004-.197-.004-.067 0-.133-.009-.199.004-.017.004-.032.015-.049.019-.225.056-.434.179-.577.382l-11.694 16.577h-8.487v-33.005h60v33.005zm-55.535 5.994h60v9.005h-60zm1-42.999h1.018c-.551.002-.993.448-.993 1s.452 1 1.005 1c.552 0 1-.448 1-1 0-.551-.447-.998-.997-1h2.983c-.55.002-.992.448-.992 1s.452 1 1.005 1c.552 0 1-.448 1-1 0-.551-.447-.998-.998-1h2.988c-.55.002-.992.448-.992 1s.452 1 1.005 1c.552 0 1-.448 1-1 0-.551-.447-.998-.997-1h50.965c.552 0 1 .449 1 1v1h-60v-1c0-.551.448-1 1-1z" data-original="#000000" class="active-path" data-old_color="#FFF5F5" fill="#FFFFFF"/><path d="m48 50.997h-32c-.553 0-1 .447-1 1s.447 1 1 1h32c.553 0 1-.447 1-1s-.447-1-1-1z" data-original="#000000" class="active-path" data-old_color="#FFF5F5" fill="#FFFFFF"/><path d="m40.993 54h-17.986c-.553 0-1 .447-1 1s.447 1 1 1h17.986c.553 0 1-.447 1-1s-.447-1-1-1z" data-original="#000000" class="active-path" data-old_color="#FFF5F5" fill="#FFFFFF"/><path d="m6.706 23.294c-.391-.391-1.023-.391-1.414 0l-1.997 1.998c-.001 0-.002 0-.002.001-.195.195-.293.451-.293.707s.098.512.293.707l1.999 2c.195.195.451.293.707.293s.512-.098.707-.292c.391-.391.391-1.024 0-1.415l-1.292-1.293 1.292-1.292c.391-.391.391-1.023 0-1.414z" data-original="#000000" class="active-path" data-old_color="#FFF5F5" fill="#FFFFFF"/><path d="m60.708 25.292-1.999-1.999c-.391-.391-1.023-.391-1.414 0s-.391 1.023 0 1.414l1.292 1.293-1.292 1.293c-.391.391-.391 1.024 0 1.415.195.194.451.292.707.292s.512-.098.707-.293l1.999-2c.195-.195.293-.451.293-.707s-.098-.512-.293-.708z" data-original="#000000" class="active-path" data-old_color="#FFF5F5" fill="#FFFFFF"/><path d="m17.002 13.999c-2.206 0-4 1.794-4 4s1.794 4 4 4 4-1.794 4-4-1.794-4-4-4zm0 6c-1.103 0-2-.897-2-2s.897-2 2-2 2 .897 2 2-.898 2-2 2z" data-original="#000000" class="active-path" data-old_color="#FFF5F5" fill="#FFFFFF"/></g> </svg>
